<svg xmlns="http://www.w3.org/2000/svg" width="93" height="28"><path fill="#929292" d="M12.026 10.094c-.977 0-1.26.435-1.26 1.39v1.585h2.606l-.26 2.563h-2.346v7.776H7.638v-7.776H5.532V13.07h2.106v-1.542c0-2.583 1.042-3.952 3.954-3.952.63 0 1.368.043 1.824.108v2.411m.173 7.819c0-2.889 1.369-5.061 4.235-5.061 1.564 0 2.519.804 2.975 1.803V13.07h2.998v10.337H20.8v-1.562c-.434.999-1.411 1.78-2.975 1.78-2.867 0-4.235-2.171-4.235-5.06m3.127.043c0 1.542.565 2.563 2.02 2.563 1.282 0 1.934-.934 1.934-2.411v-1.042c0-1.478-.652-2.411-1.934-2.411-1.454 0-2.02 1.021-2.02 2.564v.737zm13.595-5.755c1.216 0 2.369.26 2.997.695l-.695 2.215a4.919 4.919 0 0 0-2.085-.478c-1.694 0-2.433.977-2.433 2.649v.607c0 1.673.738 2.651 2.433 2.651.826 0 1.607-.239 2.085-.479l.695 2.215c-.628.435-1.781.696-2.997.696-3.669 0-5.343-1.978-5.343-5.148V18c0-3.171 1.674-5.147 5.343-5.147m3.41 5.777v-.913c0-2.932 1.671-4.865 5.083-4.865 3.214 0 4.625 1.955 4.625 4.822v1.65h-6.58c.064 1.413.695 2.042 2.433 2.042 1.172 0 2.411-.239 3.323-.629l.564 2.149c-.825.435-2.52.76-4.018.76-3.953 0-5.43-1.975-5.43-5.016m3.128-1.347h3.779v-.26c0-1.129-.457-2.02-1.824-2.02-1.413 0-1.955.891-1.955 2.28m18.178 1.281c0 2.889-1.39 5.061-4.257 5.061-1.564 0-2.65-.782-3.085-1.781v1.563h-2.953V7.877l3.127-.282v6.907c.457-.912 1.455-1.65 2.911-1.65 2.867 0 4.257 2.171 4.257 5.06m-3.128-.064c0-1.456-.565-2.541-2.063-2.541-1.282 0-1.977.912-1.977 2.389v1.086c0 1.477.695 2.39 1.977 2.39 1.497 0 2.063-1.086 2.063-2.542v-.782zm4.17.651v-.521c0-2.976 1.693-5.126 5.147-5.126 3.453 0 5.147 2.15 5.147 5.126v.521c0 2.976-1.695 5.126-5.147 5.126-3.454 0-5.147-2.15-5.147-5.126m7.167-.738c0-1.369-.565-2.455-2.02-2.455-1.456 0-2.02 1.086-2.02 2.455v.955c0 1.368.564 2.454 2.02 2.454 1.454 0 2.02-1.086 2.02-2.454v-.955zm4.169.738v-.521c0-2.976 1.693-5.126 5.147-5.126 3.453 0 5.147 2.15 5.147 5.126v.521c0 2.976-1.694 5.126-5.147 5.126-3.453 0-5.147-2.15-5.147-5.126m7.167-.738c0-1.369-.564-2.455-2.02-2.455s-2.02 1.086-2.02 2.455v.955c0 1.368.564 2.454 2.02 2.454 1.455 0 2.02-1.086 2.02-2.454v-.955zM82 18l3.084-4.93h3.323l-3.236 5.104 3.366 5.233h-3.322L82 18.348v5.059h-3.127V7.879L82 7.596"/></svg>