<svg xmlns="http://www.w3.org/2000/svg" width="64.5" height="28"><path fill="#929292" d="M61.298 7.583s-.341-2.395-1.388-3.45c-1.327-1.384-2.815-1.391-3.499-1.472-4.885-.352-12.214-.352-12.214-.352h-.016s-7.329 0-12.214.352c-.684.081-2.171.088-3.499 1.472-1.047 1.055-1.388 3.45-1.388 3.45s-.35 2.813-.35 5.625v2.637c0 2.813.35 5.625.35 5.625s.341 2.395 1.388 3.45c1.328 1.384 3.072 1.34 3.85 1.485 2.793.267 11.871.349 11.871.349s7.336-.011 12.222-.362c.683-.081 2.172-.088 3.499-1.472 1.047-1.055 1.388-3.45 1.388-3.45s.349-2.813.349-5.625v-2.637c0-2.813-.349-5.625-.349-5.625M24.93 22.093h-2.222v-1.287c-.842.965-1.557 1.453-2.334 1.453-.684 0-1.157-.322-1.395-.904-.144-.354-.246-.906-.246-1.718v-9.354h2.221v9.589c.051.328.191.448.474.448.425 0 .81-.369 1.28-1.033v-9.003h2.222v11.809zm-7.835-7.951c0-1.262-.253-2.21-.702-2.807-.592-.808-1.521-1.138-2.455-1.138-1.059 0-1.865.331-2.456 1.138-.456.597-.7 1.555-.7 2.817l-.002 4.199c0 1.255.217 2.122.672 2.713.59.805 1.549 1.231 2.485 1.231.935 0 1.91-.426 2.502-1.231.448-.591.655-1.458.655-2.713v-4.209zm-2.222 4.442c.118 1.169-.245 1.75-.935 1.75-.691 0-1.053-.58-.936-1.75v-4.677c-.117-1.169.245-1.717.936-1.717.689 0 1.053.547.937 1.717l-.002 4.677zm-6.548-2.923v6.432H5.987v-6.432S3.564 7.777 3.063 6.307h2.456l1.641 6.16 1.634-6.16h2.455l-2.924 9.354z"/><path fill="#FFF" d="M58.726 16.597l-.001-2.391c0-1.249-.246-2.162-.688-2.753-.593-.799-1.436-1.223-2.498-1.223-1.081 0-1.924.423-2.537 1.223-.449.591-.711 1.556-.711 2.805v4.092c0 1.242.289 2.111.738 2.696.611.798 1.455 1.197 2.562 1.197 1.105 0 1.975-.418 2.56-1.267.258-.374.424-.799.495-1.269.02-.212.076-.695.076-1.376V18H56.5c0 .85.003 1.354-.016 1.47-.122.566-.425.849-.946.849-.728 0-1.034-.543-1.027-1.623v-2.099h4.215zm-4.214-3.045c0-1.093.299-1.391 1.006-1.391.703 0 .982.325.982 1.405v1.277l-1.988.001v-1.292zm-5.6-3.34c-.778 0-1.553.479-2.237 1.32l.002-5.108h-2.104v15.668h2.104l.004-1.177c.707.875 1.478 1.328 2.231 1.328.843 0 1.458-.451 1.741-1.32.142-.496.234-1.258.234-2.339v-4.677c0-1.106-.143-1.863-.284-2.333-.281-.875-.848-1.362-1.691-1.362m-.246 8.49c0 1.169-.276 1.617-.886 1.617-.348 0-.75-.179-1.104-.533l.002-7.091c.354-.349.754-.533 1.102-.533.61 0 .886.343.886 1.513v5.027zm-5.847 3.391h-2.221v-1.287c-.842.965-1.557 1.453-2.334 1.453-.684 0-1.158-.322-1.395-.904-.144-.354-.247-.906-.247-1.718V10.4h2.222v9.471c.051.328.191.448.474.448.425 0 .81-.369 1.28-1.033V10.4h2.221v11.693z"/><path fill="#FFF" d="M34.4 22.093h-2.338V8.646h-2.456v-2.22l7.366-.002v2.222H34.4z"/></svg>