<svg xmlns="http://www.w3.org/2000/svg" width="320" height="205" viewBox="18.445 11.14 320 205"><path d="M316.535 116.315c0 1.403-1.405 2.808-1.405 2.808l-77.257 76.794c-2.813 3.27-4.679 1.401-3.742-.94 1.87-3.747 4.68-7.957 7.491-17.318 4.209-13.583 4.209-24.825 2.339-31.379-1.407-6.077-8.899-18.723-25.286-18.723-21.064 0-27.155 19.199-26.686 26.216.471 4.688 0 11.706 7.486 18.259 5.62 4.688 10.771 3.283 12.177 2.82 1.401 0 4.215-1.88 4.215 2.807 0 5.15-4.68 11.705-7.492 14.977-3.278 2.819-13.578 10.775-28.559 10.775-8.897 0-19.664-3.747-27.156-12.644-5.62-6.554-9.368-14.048-12.646-24.813-6.551-19.676-7.487-34.187-7.487-49.639 0-14.045 1.406-29.493 7.487-49.159 2.813-10.301 7.963-19.668 12.646-25.752 7.021-8.896 18.259-12.641 27.156-12.641 14.979 0 25.279 7.957 28.559 11.234 2.813 2.811 7.492 9.363 7.492 14.983 0 4.214-2.813 2.341-4.215 2.341-1.406-.467-6.557-1.869-12.177 2.811-7.486 6.554-7.018 14.045-7.486 18.259-.471 7.494 5.62 26.223 26.686 26.223 16.387 0 23.879-12.175 25.286-18.729 1.87-6.554 1.87-17.794-2.339-30.903-2.813-9.833-5.62-13.577-7.491-17.791-.937-1.874.931-4.214 3.742-.937l77.257 76.788s1.405 1.405 1.405 3.273zM32.8 115.381c0 1.874 1.871 3.277 1.871 3.277l81.935 78.659c2.343 1.867 2.813 0 2.343-1.401-.471-.94-.936-1.404-3.271-5.15-22.479-32.307-22.007-75.384-22.007-75.384s-.472-43.078 22.007-74.914c2.337-3.747 2.802-4.213 3.271-5.617.472-1.407 0-3.277-2.343-1.407l-81.935 78.661c0-.001-1.871 1.406-1.871 3.276z" fill="#FFF"/></svg>